# xmcd CD database file
#
# Track frame offsets:
#	150
#	29577
#	53447
#
# Disc length: 1100 seconds
#
# Revision: 0
# Processed by: cddbd v1.5PL3 Copyright (c) Steve Scherf et al.
# Submitted via: CDex 1.50beta9
#
DISCID=1c044a03
DTITLE=tohko - It's all about us
DYEAR=1900
DGENRE=J-POP
TTITLE0=It's all about us
TTITLE1=Orgel
TTITLE2=It's all about us〜TV mix〜
EXTD=
EXTT0=
EXTT1=
EXTT2=
PLAYORDER=
